<svg xmlns="http://www.w3.org/2000/svg" viewBox="0 0 144.21 85.81"><defs><style>.cls-1{fill:#ccc;}</style></defs><g id="Layer_2" data-name="Layer 2"><g id="iconape"><path class="cls-1" d="M13.74,37.72c7.62,0,13.63,3.09,13.63,12.24,0,4.43-1.77,8.22-5.53,10.32,5.53,1,9.45,4.37,9.45,12.13,0,7.92-5.32,13.4-14.49,13.4H0V37.72ZM10.89,56.55c4.35,0,6.71-1.46,6.71-5.48,0-3.44-2.31-4.89-6.71-4.89h-.8V56.55Zm2.37,20.81c4.77,0,7.4-1.57,7.4-5.36,0-4.43-2.63-6-7.4-6H10.09V77.36Z"/><path class="cls-1" d="M48.57,37.72c12.13,0,22.32,10,22.32,24S60.75,85.81,48.57,85.81H35.74V37.72ZM47.39,76C54.85,76,60,69.84,60,61.8S54.9,47.52,47.39,47.52H45.83V76Z"/><path class="cls-1" d="M85.44,85.81H75.35V37.72H85.44Z"/><path class="cls-1" d="M120.27,85.81,109.8,69.43,99.34,85.81H86.83l16.75-25.88-14-22.21h12l8.15,13.12L118,37.72h12.56L116,59.93l17.28,25.88Z"/><path class="cls-1" d="M54.32,29.58a65,65,0,0,1,6.51-2.08c1.06-.27,2.1-.61,3.26-.89s2.38-.62,3.76-1c.47-.15,1.1-.24,2-.42l1.59-.3c.62-.09,1.33-.15,2.14-.24l1.53-.15,1.74,0,1.9,0,2,.15,2.1.17,2.1.38,2.1.38,2,.57a51.63,51.63,0,0,1,6.66,2.35,17,17,0,0,1,2,.92l.71.37,2.24,1.15.54.29.29.15.25.1.36.14c.47.19,1,.37,1.49.56,1,.37,2.22.75,3.47,1.1a60.4,60.4,0,0,0,15.83,2.45,38.53,38.53,0,0,0,9.29-1,19.63,19.63,0,0,0,7.3-3.33A18.75,18.75,0,0,0,144.21,26a35.71,35.71,0,0,1-6.15,2.82,57.83,57.83,0,0,1-6.8,2,35.35,35.35,0,0,1-8.37.87,57.26,57.26,0,0,1-14.78-2.28c-1.17-.34-2.27-.69-3.25-1-.49-.18-1-.34-1.37-.51l-.38-.15-.58-.3-2.39-1.23-.75-.39a19.58,19.58,0,0,0-2.09-1,55.56,55.56,0,0,0-7.18-2.55c-.71-.2-1.44-.42-2.18-.62l-2.29-.41-2.29-.42-2.29-.18-2.2-.17-2.09,0-1.9,0-1.68.17c-.89.1-1.67.17-2.35.26l-1.74.34c-1,.2-1.69.31-2.2.47a26.32,26.32,0,0,0-4,1.37,21.77,21.77,0,0,0-3.23,1.69A23.52,23.52,0,0,0,54.32,29.58Z"/><path class="cls-1" d="M54.32,20.31a62.56,62.56,0,0,1,6.51-2.08c1.06-.27,2.1-.61,3.26-.89s2.38-.62,3.76-1c.47-.15,1.1-.24,2-.42l1.59-.31c.62-.08,1.33-.14,2.14-.23l1.53-.15,1.74,0,1.9,0,2,.16,2.1.17,2.1.38,2.1.37,2,.57a51.63,51.63,0,0,1,6.66,2.35,16.79,16.79,0,0,1,2,.93l.71.37,2.24,1.15.54.28.29.15c.11.06.22.09.25.11l.36.14c.47.19,1,.37,1.49.55,1,.37,2.22.75,3.47,1.11a60,60,0,0,0,15.83,2.44,38.17,38.17,0,0,0,9.29-1,19.79,19.79,0,0,0,7.3-3.33,18.8,18.8,0,0,0,4.76-5.34,35.8,35.8,0,0,1-6.15,2.83,57.83,57.83,0,0,1-6.8,2,35.92,35.92,0,0,1-8.37.87,56.86,56.86,0,0,1-14.78-2.29c-1.17-.33-2.27-.68-3.25-1l-1.37-.5-.38-.15-.58-.3L100.14,17l-.75-.39a19.58,19.58,0,0,0-2.09-1,54.09,54.09,0,0,0-7.18-2.55c-.71-.21-1.44-.43-2.18-.62L85.65,12l-2.29-.41-2.29-.19-2.2-.16-2.09,0-1.9,0-1.68.17c-.89.1-1.67.17-2.35.26l-1.74.34c-1,.2-1.69.31-2.2.47a26.32,26.32,0,0,0-4,1.37,21.77,21.77,0,0,0-3.23,1.69A23.52,23.52,0,0,0,54.32,20.31Z"/><path class="cls-1" d="M54.32,9.05A65,65,0,0,1,60.83,7c1.06-.27,2.1-.61,3.26-.89s2.38-.62,3.76-1c.47-.15,1.1-.24,2-.42l1.59-.3c.62-.09,1.33-.14,2.14-.23L75.11,4l1.74,0,1.9,0,2,.15,2.1.17,2.1.38,2.1.38,2,.57a51.63,51.63,0,0,1,6.66,2.35,15.29,15.29,0,0,1,2,.93l.71.36,2.24,1.16.54.28.29.15.25.1.36.14c.47.19,1,.37,1.49.56,1,.37,2.22.75,3.47,1.1a60,60,0,0,0,15.83,2.45,38,38,0,0,0,9.29-1,19.63,19.63,0,0,0,7.3-3.33,18.75,18.75,0,0,0,4.76-5.33,36.58,36.58,0,0,1-6.15,2.83,58,58,0,0,1-6.8,2,34.8,34.8,0,0,1-8.37.87A57.26,57.26,0,0,1,108.11,9c-1.17-.34-2.27-.69-3.25-1-.49-.18-1-.34-1.37-.51l-.38-.15-.58-.3-2.39-1.22-.75-.4a19.58,19.58,0,0,0-2.09-1A55.56,55.56,0,0,0,90.12,1.8c-.71-.2-1.44-.42-2.18-.62L85.65.77,83.36.35,81.07.17,78.87,0,76.78,0l-1.9,0L73.2.23c-.89.1-1.67.17-2.35.26L69.11.83c-1,.2-1.69.31-2.2.47a26.32,26.32,0,0,0-4,1.37,21.79,21.79,0,0,0-3.23,1.7A23.22,23.22,0,0,0,54.32,9.05Z"/></g></g></svg>