<svg xmlns="http://www.w3.org/2000/svg" viewBox="0 0 171.6 171.6"><defs><style>.cls-1{fill:#ccc;}</style></defs><g id="Layer_2" data-name="Layer 2"><g id="Layer_1-2" data-name="Layer 1"><path class="cls-1" d="M85.8,171.6A85.8,85.8,0,1,0,0,85.8,85.78,85.78,0,0,0,85.8,171.6ZM47.6,51a86.3,86.3,0,0,1,22.8-7.1,56,56,0,0,1,3,6,82.55,82.55,0,0,1,25.3,0,66.25,66.25,0,0,1,2.9-6,91.2,91.2,0,0,1,22.8,7c12.5,18.4,18.7,39.2,16.5,63.2a91.11,91.11,0,0,1-28,14.1,65,65,0,0,1-6-9.7,55,55,0,0,0,9.5-4.5c-.8-.6-1.5-1.2-2.3-1.8a65.37,65.37,0,0,1-56,0c-.8.6-1.5,1.2-2.3,1.8a54.1,54.1,0,0,0,9.4,4.5,65,65,0,0,1-6,9.7,90,90,0,0,1-28-14.1C29.3,93.4,33.2,72.5,47.6,51Z"/><path class="cls-1" d="M67.6,101.3c5.6,0,9.9-5,10-11.1S73.2,79,67.6,79s-9.9,5.1-9.9,11.2S62.1,101.3,67.6,101.3Z"/><path class="cls-1" d="M104.4,101.3c5.5,0,9.8-4.9,9.9-11.1S110,79,104.4,79s-9.9,5.1-9.9,11.2S98.9,101.3,104.4,101.3Z"/></g></g></svg>