<svg xmlns="http://www.w3.org/2000/svg" viewBox="0 0 716.6 832.25"><defs><style>.cls-1{fill:#ccc;}</style></defs><g id="Layer_2" data-name="Layer 2"><g id="Layer_1-2" data-name="Layer 1"><path class="cls-1" d="M651.65,0H65C17.67,0,0,17.67,0,65.22v574a135.68,135.68,0,0,0,.78,15.07c1,10.39,1.3,20.52,10.91,32,1,1,10.92,8.58,10.92,8.58,5.19,2.6,8.83,4.42,14.81,7L326.08,822.87c15.07,6.76,21.31,9.62,32.22,9.36,10.92.26,17.15-2.34,32.22-9.36L679.19,701.79a154.89,154.89,0,0,0,14.81-7s9.87-7.28,10.91-8.58c9.62-11.43,9.88-21.56,10.92-32a138.26,138.26,0,0,0,.77-15.07v-574c0-47.55-17.4-65.22-65-65.22"/><path d="M612.15,577.08l-.26,1.3-.26,1.56-.26,1.29-.52,1.3-.26,1.3-.51,1.3-.52,1.3-.52,1-.52,1.3-.78,1-.78,1-.78,1-.78,1-.78,1-1,1-.78.77-1,1-1,.78-1,.78-1,.52-1,.78-1.3.78L595,601l-1.3.78-1.3.52-1.3.52-1.3.52v-.26l-1.3.52-1.3.26-2.34.52-1.3.26-1.3.26-1.3.26-1.29.26-1.56.26-1.3.26h-5.2l-1.3-.26h-1.56l-1.3-.26-1.3-.26-1.55-.26-1.3-.26-1.3-.26-1.3-.26-1.3-.26-1.3-.26-1.3-.26-1.3-.52-1.3-.26-1.3-.52-1.3-.52-1.3-.52-1.29-.52-1.3-.52-1.3-.52-1.3-.52-1.3-.52-1.3-.52-1.3-.52-1.3-.78-1-.78-1.3-.77-1-.78-1-.78-1-.78-1-.78-1-.78-1-.78-1-.78-1-1,.78-1,1-1,.78-1,1-1,.78-1,.78-1,1-1,.78-1,1-1,.78-1,1-1,.78-1,.78-1,1-1,.78-1,1-1,.78-1,1,.78,1.3.78,1,.78,1.3.78,1,.78,1.29.78,1,.78,1.3.52,1,.78,1.3.52,1.3.52,1.3.52,1.3.52,1.3.52,1.3.51,1.3.52,1.3.52,1.29.26,2.6.52,1.56.26,1.3.26h1.3l1.56.26h2.86l1.56-.26,1.3-.26,1.29-.26,1.3-.26,1-.52,1-.52,1-.77.78-1,.52-1,.52-1.3.26-1.3v-.26L588,574l-.52-1.3-.78-1-1-.78-1-.78-1-.52-1.3-.52-1.3-.52-1.55-.78-1-.26-1-.26-1.3-.52-1.3-.26-1.3-.52-1.3-.26-1.56-.51-1.3-.26-1.56-.52-1.3-.26-1.29-.52-1.3-.26-1.3-.52-1.3-.52-1.3-.26-1.3-.52-1.3-.52-1.3-.52-1.56-.52-1.3-.52-1.3-.52-1.3-.52-1.29-.78-1.3-.78-1-.78-1.3-.78-1-.78-1-.78-1-.78-1-1-1-1-.78-1-.78-1-.78-1-.78-1-.78-1.3-.52-1-.52-1-.25-1.3-.52-1-.26-1.3-.26-1.3-.26-1.3-.26-1.3-.26-1.55v-3.12l.26-1.3.26-1.3.26-1.3.26-1.3.26-1.3.52-1.3.25-1.3.52-1.3.52-1.29.52-1.3.78-1.3.78-1.3.78-1,.78-1,1-1,1-1,1-1,1-1,1-.78,1-.78,1-.78,1-.78,1.3-.78,1.29-.51,1.3-.78,1.3-.52L555,503l1.3-.52,1.3-.52,1-.26,1.3-.26,1.3-.26,1.3-.26,1.3-.26,1.3-.26,1.29-.26,1.3-.26,1.3-.26h5.72l1.56.26,1.56.26h1.3l1.55.26,1.3.26,1.56.26,1.3.26,1.3.26,1.3.26,1.3.26,1.3.26,1.3.52,1.3.52,1.3.26,1.3.52,1.29.52,1.3.52,1.3.51,1.3.52,1.3.78,1,.52,1.3.78,1.3.78,1,.78,1.3.78,1,.78,1,.78,1,.78,1,.78-.78,1-.77,1-.78,1-.78,1-.78,1.3-.78,1-.78,1-.78,1-.78,1-.78,1-.78,1-.78,1-.78,1.3-.78,1-.78,1-2.6,5.71-.78,1-1-.78-1.29-.77-1-.78-1-.78-1.3-.52-1-.78-1.3-.52-1-.52-1.3-.52-1-.52-1.3-.52-1-.52-1.56-.52L580.2,528l-1.3-.52-1.3-.26-.78.52-1.3-.26-1.3-.26-1.3-.26-1.3-.26h-2.86l-1.56.26-1.3.26-1.29.26-1,.52-1,.52-1.3,1-.78,1.3-.52,1.3-.26,1.3v.26l.26,1.81.52,1.56.52.78,1,1,1.3.78,1,.78,1.29.52,1.56.52,1.56.52,1,.26,1,.52,1.3.26,1.3.52,1.3.26,1.56.52,1.56.52,1.56.52,1.55.26,1.3.52,1.56.52,1.3.26,1.3.52,1.3.52,1.3.52,1.3.52,1.3.52,1.3.26,1.56.51,1.29.78,1.3.52,1.3.78,1.3.78,1.3.78,1,.78,1,.78,1,.78,1,1,1,1,1,1,1,1,.78,1,.78,1.3.77,1,.78,1.3.52,1,.52,1.3.26,1.3.26,1.3.52,2.6.26,1.3.26,1.56v3.12l-1.82-1.56Zm-92.23,26.5H444.31v-96.4h76.12V529H469.51v15.85h45.73v20.52H469.51v16.37h51.7v21.83Zm-96.4,0H399.36v-56.9l-.78,1-.78,1.3-.78,1-.78,1-.78,1.3-.78,1-.78,1-.78,1.3-.78,1-.78,1-.78,1-.78,1.3-.78,1-.78,1-.78,1.3-.78,1-.78,1-.78,1.3-.52,1-.77,1-.78,1.3-.78,1-.78,1-.78,1.3-.78,1-.52,1-.78,1-.78,1.3-.78,1-.78,1-.52,1.3-.78,1-.78,1-.78,1.3-.78,1h-.52l-.78-1.3-.78-1-.78-1.3-.78-1-.77-1.3-.78-1-.78-1.3-.78-1-.78-1.3-.52-1-.78-1.3-.78-1-.78-1.3,1.3-1.3L363,568l-.78-1-.78-1.3-.78-1-.78-1.3-.78-1-.52-.78-.78-1-.78-1.3-.78-1-.78-1.3-.78-1-.78-1.3-.51-.78-.78-1.3-.78-1-.78-1.3-.78-1-.78-1.3-.78-1v56.64H323.74v-96.4h27l.78,1,.78,1.3.78,1,.78,1.3.77,1,.78,1.3.78,1,.78,1.3.78,1,.78,1,.78,1.3.78,1,.78,1.3.78,1,.78,1.3.78,1,.78,1,.78,1.3.78,1,.78,1.3.78,1,.78,1.3.78,1,.52,1.3.77,1,.52,1,.78,1.3.78,1,.78,1.3.78,1,.52,1.3.78,1,.78,1.3.78,1,.78-1,.78-1.3.78-1,.78-1.3.78-1,.78-1.3.78-1,.78-1.3.78-1,.52-1,.78-1.3.77-1,.78-1.3.78-1,.78-1.3.78-1,.78-1.3.78-1,.78-1,.78-1.3.78-1,.78-1.3.78-1,.78-1.3.52-1,.78-1L397,515l.78-1,.78-1.3.78-1,.78-1.3.77-1,.78-1.3.78-1h27v96.4l-6,.26ZM270.74,563.83l-.52-1.3-.52-1.3-.52-1.3-.52-1.3-.52-1.3-.52-1.3-.52-1.3-.52-1.3-.52-1.3-.52-1.3-.52-1.29-.52-1.3-.52-1.3-.51-1.3-.52-1.3-.52-1.3-.52-1.3-.52-1.3-.52-1.3-.52-1.3-.52-1.3-.52-1.3-.52,1.3-.52,1.3-.52,1.3-.52,1.3-.52,1.3-.52,1.3-.52,1.3-.52,1.3-.52,1.3-.52,1.3-.52,1.3-.52,1.29-.52,1.3-.52,1.3-.52,1.3L251,556l-.52,1.3-.52,1.3-.52,1.3-.51,1.3-.52,1.3-.52,1.3-.52,1.3H269.7l1-1.3Zm41.31,39.75H286.33l-.52-1.3-.52-1.3-.52-1.3-.52-1.3-.52-1.3-.52-1.3-.52-1.29-.52-1.3-.52-1.3-.52-1.3-.52-1.3-.52-1.3-.52-1.3-.52-1.3-.51-1.3H241.12l-.52,1.3-.52,1.3-.52,1.3-.52,1.3-.52,1.3-1,2.34-.52,1.3-.52,1.29-.52,1.3-.52,1.3-.52,1.3-.52,1.3-.52,1.3-.51,1.3h-26l.52-1.3,1-2.34.52-1.3.52-1.3,1-2.33.52-1.3.52-1.3.52-1.3.52-.78.52-1.3.52-1.3.52-1.3.52-1.3.52-1.3.52-1.3.52-1.3.52-1.29.52-1.3.52-1.3.51-1.3,1-2.34.52-1.3.52-1.3.52-1.3.52-1.3.52-1.3.52-1.3.52-1.29.52-1.3.52-1.3.52-1.3.52-1.3.52-1.3.52-1.3.52-1.3.52-1.3.52-1.3.52-1.3.52-1.29.52-1.3.52-1.3.52-1.3.52-1.3.52-1.3.52-1.3.52-1.3.51-1.3.52-1.3.52-1.3.52-1.3.52-1.29.52-1.3.52-1.3,1-2.34.52-1.3.52-1.3.52-1.3.52-1.3.52-1.3.52-1.3.52-1.3.52-1.29.52-1.3.52-1.3.26-1.3.52-1.3.52-1.3.52-1.3L245,510l.52-1.3.52-1.3.52-1.3.52-1.29,1-2.34.52-1.3h24.43l.52,1.3.52,1.3.52,1.29.52,1.3.52,1.3.52,1.3.52,1.3.52,1.3.52,1.3.51,1.3.52,1.3.52,1.3.52,1.3.52,1.3.52,1.29.52,1.3.52,1.3.52,1.3.52,1.3.52,1.3.52,1.3.52,1.3.52,1.3.52,1.3.52,1.3.52,1.3.52,1.29.52,1.3.52,1.3.52,1.3,1,2.34.52,1.3.52,1.3.52,1.3.52,1.3.52,1.3.52,1.29.51,1.3.52,1.3.52,1.3.52,1.3.52,1.3.52,1.3.52,1.3.52,1.3.52,1.3.52,1.3.52,1.3.52,1.29.52,1.3.52,1.3.52,1.3.52,1.3.52,1.3.52,1.3.52,1.3.52,1.3.52,1.3.52,1.3.52,1.3.52,1.29.52,1.3.52,1.3.52,1.3.52,1.3.51,1.3.52,1.3.52,1.3.52,1.3.52,1.3.52,1.3.52,1.29.52,1.3.52,1.3.52,1.3.52,1.3.52,1.3,1,2.34-2.6-1ZM196.69,591.11l-1,.78-1,.78-1,.78-1,.78-1,.78-1,.77-1,.78-1.29.78-1.3.78-1.3.78-1.3.52-1.3.78-1.3.52-1.3.52-1.3.52-1.3.52-1.3.52-1.3.52-1.3.52-1.29.52-1.3.52-1.3.26-1.3.26-1.3.26-1.3.26-1.3.26-1.56.26-1.3.26-1.56.26-1.3.26-1.55.26H153.3l-1.3-.26-1.56-.26-1.3-.26-1.3-.26-1.3-.26-1.3-.26-1.3-.26-1.29-.26-1.3-.26-1.3-.26-1.3-.26-1.3-.52-1.3-.52-1.3-.52-1.3-.52-1.3-.52-1.3-.52-1.3-.52-1.3-.78-1-.52-1.3-.78-1-.78-1-.78-1-.78-1-.78-1-.77-1-.78-1-.78-1-1-1-.78-1-1-1-1-.78-1-.78-1-.77-1-.78-1-.78-1-.78-1-.52-1-.78-1.3-.78-1-.52-1.3-.52-1.3-.52-1.3-.52-1.3-.52-1-.52-1.3-.26-1.3-.52-1.3-.26-1.3-.52-1.3-.26-1.3v-1.29l-.26-1.3V562l-.26-1.3V549.54l.26-1.56.26-1.3.26-1.3.26-1.3.52-1.3.26-1.3.52-1.3.52-1.3.52-1.3.52-1.3.52-1.29.52-1.3.52-1.3.52-1.3.78-1.3.78-1,.52-1,.78-1,.78-1,.78-1,.77-1,.78-1,.78-1,1-1,.78-1,1-1,1-1,1-.78,1-1,1-.78,1-.78,1-.78,1-.78,1-.78,1-.78,1.29-.78,1.3-.78,1.3-.78,1.3-.52,1.3-.52,1.3-.78,1-.52,1.3-.52,1.3-.51,1.3-.26,1.3-.52,1.3-.26,1.29-.52,1.3-.26,1.3-.26,1.3-.26,1.3-.26,1.3-.26,1.3-.26,1.3-.26h5.45l1.56.26,1.56.26h1.3l1.3.26,1.56.26,1.3.26,1.3.26,1.3.26,1.3.26,1.3.26,1.29.26,1.3.52,1.3.26,1,.51,1.3.52,2.34,1,1.3.52,1.3.78,1.3.52,1,.78,1.3.78,1,.78,1.29.78,1,.78,1,.78,1,.78,1,.78,1,1,1,.78-.78,1-1,1-.78,1-1,1-.78,1-.78,1-1,1-.78,1-.77,1-1,1-.78,1-1,1-.78,1-.78,1-1,1-.78,1-1,1-.78,1-1-.77-1-1-1-.78-1-.78-1-.78-1-.78-1-.78-1.3-.78-1-.52-1-.52-1-.52-1.3-.52-1.3-.52-1.3-.26-1.3-.26-1.3-.26-1.3-.26-1.56-.26-1.55-.26h-2.86l-1.3.26-1.3.26-1.3.26-1.3.26-1.3.52-1.3.52-1,3.12-1.3.52-1,.78-1,.78-1,.78-1,.78-1,.78-1,.77-.78,1-1,1-.78,1-.78,1-.78,1-.52,1.3-.78,1-.52,1.3-.52,1.3-.52,1.3-.52,1.3-.26,1.3-.26,1.29-.26,1.56V562l.26,1.3.26,1.3.26,1.29.52,1.3,1.56-.52L133,568l.52,1.3.78,1.3,1.3,2.08.78,1,.78,1,1,1,.78,1,1,.78,1,.78,1,.78,1,.78,1,.77,1.3.52,1.3.52,1.3.52,1.3.52,1.3.52,1.3.26,1.3.26,1.3.26,1.56.26h2.33l1.56-.26,1.56-.26,1.3-.26,1.3-.26,1.3-.26,1.3-.26,1.3-.26,1.3-.52,1-.52,1.3-.52,1-.52,1-.77v-13H154.6V547.46h42.87v43.13l-.78.52ZM154.34,289.19H211.5V245H154.34V154.86h59.5V110.69H105.75V429.5H214.62V385.32H154.34V289.19m409,9.61v72c0,12.74-6,18.71-18.19,18.71H536c-12.73,0-18.7-6-18.7-18.71V169.41c0-12.73,6-18.71,18.7-18.71h8.06c12.21,0,18.19,6,18.19,18.71v62.36h47.55V166.55c0-39.49-19-58.72-58.47-58.72H527.71c-39.49,0-59,19.49-59,59.24V372.85c0,39.76,19.49,59.24,59,59.24h23.9c39.5,0,59-19.48,59-59.24V298.54H563.31M394.94,110.69h48.59V429.5H394.94Zm-70.42,141.6c0,12.73-6,18.71-18.18,18.71h-20V153.56h20c12.21,0,18.18,6,18.18,18.71Zm-10.39-141.6H238V429.5h48.59V313.87h27.54c39.5,0,59-19.49,59-59.24v-84.7c0-39.76-19.48-59.24-59-59.24Zm-94.06,607H497.83L356.22,764.41,220.07,717.64"/></g></g></svg>