<svg xmlns="http://www.w3.org/2000/svg" viewBox="0 0 2275.29 2275.38"><g id="Layer_2" data-name="Layer 2"><g id="katman_1" data-name="katman 1"><path d="M758.52,1137.69c0-209.43,169.74-379.26,379.17-379.26S1517,928.26,1517,1137.69,1347.13,1517,1137.69,1517s-379.17-169.82-379.17-379.26m-205,0c0,322.65,261.54,584.2,584.19,584.2s584.2-261.55,584.2-584.2S1460.34,553.5,1137.69,553.5,553.5,815,553.5,1137.69m1055-607.35A136.56,136.56,0,1,0,1745,393.87a136.59,136.59,0,0,0-136.56,136.47M678,2063.74c-110.92-5-171.2-23.52-211.27-39.14-53.12-20.68-91-45.31-130.86-85.1s-64.52-77.65-85.1-130.77c-15.62-40.07-34.1-100.35-39.15-211.27-5.51-119.93-6.62-156-6.62-459.77s1.2-339.74,6.62-459.76c5.05-110.92,23.62-171.11,39.15-211.27,20.68-53.12,45.3-91,85.1-130.87s77.65-64.51,130.86-85.09C506.82,235.07,567.1,216.6,678,211.55c119.93-5.52,156-6.62,459.67-6.62s339.75,1.2,459.77,6.62c110.92,5,171.11,23.62,211.27,39.15,53.12,20.58,91,45.3,130.86,85.09s64.42,77.75,85.1,130.87c15.62,40.06,34.09,100.35,39.15,211.27,5.51,120,6.61,156,6.61,459.76s-1.1,339.75-6.61,459.77c-5.06,110.92-23.62,171.2-39.15,211.27-20.68,53.12-45.31,91-85.1,130.77s-77.74,64.42-130.86,85.1c-40.07,15.62-100.35,34.09-211.27,39.14-119.93,5.52-156,6.62-459.77,6.62S798,2069.26,678,2063.74M668.65,6.89C547.53,12.41,464.82,31.61,392.49,59.73c-74.8,29-138.21,68-201.53,131.23S88.77,317.6,59.73,392.49c-28.12,72.33-47.32,155-52.84,276.16C1.29,790,0,828.73,0,1137.69s1.29,347.74,6.89,469.05c5.52,121.12,24.72,203.83,52.84,276.15,29,74.8,67.92,138.31,131.23,201.53s126.64,102.1,201.53,131.23c72.42,28.12,155,47.33,276.16,52.84,121.39,5.52,160.08,6.89,469,6.89s347.74-1.28,469.05-6.89c121.12-5.51,203.83-24.72,276.15-52.84,74.8-29.13,138.21-68,201.53-131.23s102.1-126.73,131.23-201.53c28.12-72.32,47.42-155,52.84-276.15,5.52-121.4,6.8-160.09,6.8-469s-1.28-347.74-6.8-469c-5.51-121.12-24.72-203.83-52.84-276.16-29.13-74.8-68-138.21-131.23-201.53S1957.69,88.77,1883,59.73c-72.41-28.12-155.12-47.42-276.15-52.84C1485.52,1.38,1446.74,0,1137.78,0S790,1.29,668.65,6.89"/></g></g></svg>