<svg xmlns="http://www.w3.org/2000/svg" viewBox="0 0 2283.12 2280.79"><defs><style>.cls-1{fill:#ccc;}</style></defs><g id="Layer_2" data-name="Layer 2"><g id="katman_1" data-name="katman 1"><path class="cls-1" d="M1141.56,0C498.43,0,0,470.62,0,1106.23,0,1438.71,136.43,1726,358.55,1924.47a91.89,91.89,0,0,1,30.77,64.94l6.21,202.84C397.59,2257,464.43,2299,523.7,2273l226.47-99.81a91.16,91.16,0,0,1,60.87-4.59c104.05,28.68,215,43.82,330.52,43.82,643.13,0,1141.56-470.61,1141.56-1106.22S1784.69,0,1141.56,0ZM1827,851.29l-335.11,531.2c-53.29,84.44-167.68,105.56-247.61,45.66L977.56,1228.29a68.63,68.63,0,0,0-82.46.23L534.72,1501.81c-48,36.49-110.94-21.11-78.55-72h0L791.51,898.33c53.29-84.44,167.67-105.55,247.61-45.66l266.66,199.86a68.61,68.61,0,0,0,82.46-.23L1748.4,779.24C1796.4,742.76,1859.34,800.36,1827,851.29Z"/></g></g></svg>