<svg xmlns="http://www.w3.org/2000/svg" viewBox="0 0 1280.37 476.96"><defs><style>.cls-1{isolation:isolate;}.cls-2{fill:#fff;}.cls-3{fill:#707070;}.cls-4{fill:#ccc;}</style></defs><g id="Layer_2" data-name="Layer 2"><g id="Layer_1-2" data-name="Layer 1"><g class="cls-1"><g class="cls-1"><path class="cls-2" d="M316.17,222.42h43.16v13.16h.48c9.76-9.75,22.19-16.82,35.84-16.82,22.92,0,54.86,11.46,54.86,46.32v82.41H407.35V276.78c0-12.43-8.53-24.38-22.42-24.38-12.93,0-25.6,12-25.6,24.38v70.71H316.17Z"/><path class="cls-2" d="M513.16,290.92c0,19.26,16.09,25.85,27.06,25.85,13.9,0,20-2.69,30.47-13.9l31.21,15.6c-14.14,23.65-37.06,32.67-64.85,32.67-37.79,0-68.75-29.74-68.75-66.07,0-36.57,31-66.31,68.75-66.31,38,0,67.05,22.43,67.05,66.31a43.89,43.89,0,0,1-.25,5.85ZM561.92,267c-1.95-13.16-11-20.24-23.65-20.24-14.87,0-23.16,8.78-23.89,20.24Z"/></g><g class="cls-1"><path class="cls-2" d="M665,281.9c0,24.63,6.58,34.14,24.62,34.14s24.63-9.51,24.63-34.14V222.42h43.15v70c0,41.93-21,58.75-67.78,58.75s-67.77-16.82-67.77-58.75v-70H665Z"/></g><g class="cls-1"><path class="cls-2" d="M790.35,175.85H833.5v46.57h26.33v32.91H833.5v39.74c0,11.7,2.92,17.31,9.75,17.31,5.61,0,10.73-3.9,10.73-3.9l10.73,34.86a71.45,71.45,0,0,1-31.7,7.8c-34.37,0-42.66-25.6-42.66-47.78v-48H772.3V222.42h18.05Z"/><path class="cls-2" d="M915.17,290.92c0,19.26,16.09,25.85,27.06,25.85,13.9,0,20-2.69,30.47-13.9l31.21,15.6c-14.14,23.65-37.06,32.67-64.85,32.67-37.79,0-68.75-29.74-68.75-66.07,0-36.57,31-66.31,68.75-66.31,38,0,67,22.43,67,66.31a45.7,45.7,0,0,1-.24,5.85ZM963.93,267c-1.95-13.16-11-20.24-23.65-20.24-14.87,0-23.16,8.78-23.89,20.24Z"/><path class="cls-2" d="M1063.15,284.83c0,17.31,13.41,31,29.74,31,12.92,0,21-5.85,21-5.85l14.63,30s-14.14,11.21-41.94,11.21c-36.08,0-69.24-29.25-69.24-65.82,0-36.82,32.92-66.56,69.24-66.56,27.8,0,41.94,11.7,41.94,11.7L1113.86,260s-8-5.85-21-5.85C1076.56,254.11,1063.15,267.76,1063.15,284.83Z"/><path class="cls-2" d="M1146,137.82h43.15v97.76h.49c9.75-9.75,22.18-16.82,35.83-16.82,22.92,0,54.86,11.46,54.86,46.32v82.41h-43.15V276.78c0-12.43-8.54-24.38-22.43-24.38-12.92,0-25.6,12-25.6,24.38v70.71H1146Z"/></g></g><g class="cls-1"><path class="cls-2" d="M861.18,477H844.49V403.75h16.69Z"/></g><g class="cls-1"><path class="cls-2" d="M888.51,477H871.82V403.75h16.69l29.11,45.44h.17V403.75h16.69V477H917.79l-29.1-45.43h-.18Z"/></g><g class="cls-1"><path class="cls-2" d="M936.24,403.75h51.47v14.64H970.32V477H953.63V418.39H936.24Z"/><path class="cls-2" d="M1035.63,418.39h-25.2V433h24.14v14.64h-24.14v14.73h25.2V477H993.74V403.75h41.89Z"/><path class="cls-2" d="M1071.39,403.75c13.58,0,23.87,7.36,23.87,21.74,0,11-6,18.37-15,21.21l25.2,30.26h-21.21L1061.9,448V477h-16.69V403.75Zm-7.54,32.48c6.3,0,13.84-.44,13.84-9.59s-7.54-9.58-13.84-9.58h-1.95v19.17Z"/><path class="cls-2" d="M1125.43,477h-16.68V403.75h16.68l29.11,45.44h.18V403.75h16.68V477h-16.68l-29.11-45.43h-.18Z"/><path class="cls-2" d="M1223.93,418.39h-25.2V433h24.14v14.64h-24.14v14.73h25.2V477H1182V403.75h41.89Z"/><path class="cls-2" d="M1228.9,403.75h51.47v14.64H1263V477h-16.69V418.39H1228.9Z"/></g><polygon class="cls-2" points="126.62 147.98 126.86 0 254.24 74.2 126.62 147.98"/><polygon class="cls-3" points="127.12 294.38 0 220.99 0 367.77 127.12 441.17 254.24 367.77 127.12 294.38"/><polygon class="cls-4" points="127.12 147.59 0 220.99 127.12 294.38 254.24 220.99 254.24 74.2 127.12 147.59"/></g></g></svg>