<svg xmlns="http://www.w3.org/2000/svg" viewBox="0 0 116.22 156.39"><defs><style>.cls-1{fill:#ccc;}</style></defs><g id="Layer_2" data-name="Layer 2"><g id="katman_1" data-name="katman 1"><path class="cls-1" d="M55.54.2a1.68,1.68,0,0,1,2.38,1c.38.76-.19,1.62-.67,2.19a38.57,38.57,0,0,0-6.37,15.21,1.2,1.2,0,0,0-.57,1.53,3.77,3.77,0,0,1,.95.38,57.46,57.46,0,0,1,18.54.95A57.2,57.2,0,0,1,99.18,37.29a58.16,58.16,0,0,1,11.89,64.94,119.56,119.56,0,0,1-50.3,53.91,1.64,1.64,0,0,1-2.19-.38,1.88,1.88,0,0,1,.19-2.38,38.92,38.92,0,0,0,6.09-13.78,18.06,18.06,0,0,0,.47-3.14c-.38-.48-1-.38-1.52-.38A58.12,58.12,0,0,1,0,77.6,58.47,58.47,0,0,1,7.24,49.93,121.11,121.11,0,0,1,55.54.2M55,55.64A22.51,22.51,0,0,0,35.48,77.79a22.07,22.07,0,0,0,6.18,15.88,23.18,23.18,0,0,0,13.59,6.94A22.64,22.64,0,0,0,79.78,84.73,22.75,22.75,0,0,0,71.7,60,21.58,21.58,0,0,0,55,55.64Z"/></g></g></svg>