<svg xmlns="http://www.w3.org/2000/svg" viewBox="0 0 2498.57 795"><defs><style>.cls-1{fill:#ccc;}</style></defs><g id="Layer_2" data-name="Layer 2"><g id="katman_1" data-name="katman 1"><path class="cls-1" d="M404.85,720.83l-36.12-93.05,349.07,18L702.13,794.66ZM488.49,0,0,230.75,75.55,578.47h99.64L158,329.73,173.27,325l59.91,253.47H336.7l-3.83-303,15.29-4.74,52.36,307.73h109.6l25.85-366,15.28-4.75,27.12,370.72H723.3l51-508.93ZM1997.07,757l-1-29,100.29-1.18.92-31.62-102.39-1.27-1-29.37,134.9-3.16,1.1-34.68h-182L1942.44,795h190.78l-1.34-34.75Zm-907.45-61.88-2.14,31.5,50.61,1.69-.64,32-105.94-3.11,4.62-92.34,145.66-3.37-2.1-34.75H991.54L974.67,795H1189l-5.55-101.54Zm1327.87,13-139-23.51.6-18.22,133-5-3.36-34.75h-171L2229,713.92l141.35,24.58.64,16-147.07,5.71L2220.28,795h205.84ZM1850.12,795l-16.87-168.32h-48.44l-69.58,80.23-69.59-80.23h-48.43L1580.34,795h56.9l5.44-109.2,72.55,74.44,72.54-74.44,5.45,109.2ZM1611,10.28H1497.1l-10.37,520.53h137.6Zm352.88,407.31-125.66,4.05L1834,115.51l131.43,4ZM2074,10.51H1718.93l-13.82,520.3H2099.2ZM2498.57,124.2,2485.89,10.28H2136.06l3,101.47,111.89,3.88,11.47,415.19h137.87L2359,119.37Zm-1352.43-7.43,109.74-3.67,12.5,103.71-126.66,59.83Zm128.21,414H1423.8l-97.4-233.62,77.73-42.47L1351,10.27H969.52L957,123.08l85.34-2.85L1001.16,530.8h133.57l3.61-130.88,96.24-52.57ZM1347,719.13l11.57-55.07,55.56-2.51,11.61,55.26ZM1442.22,795h57.62l-45.59-168.33H1319.06L1273.48,795h57.62l8.92-42.47,93.53,1.21Z"/></g></g></svg>