<svg xmlns="http://www.w3.org/2000/svg" viewBox="0 0 160.24 145.9"><defs><style>.cls-1{fill:#5e5e5e;}.cls-1,.cls-2,.cls-3,.cls-4{fill-rule:evenodd;}.cls-2{fill:#cdcccc;}.cls-3{fill:#1d1d1b;}.cls-4{fill:#fff;}</style></defs><g id="Layer_2" data-name="Layer 2"><g id="Layer_1-2" data-name="Layer 1"><path class="cls-1" d="M25,0H135.24a25.07,25.07,0,0,1,25,25v95.9a25.07,25.07,0,0,1-25,25H25a25.07,25.07,0,0,1-25-25V25A25.07,25.07,0,0,1,25,0Z"/><path class="cls-2" d="M26.66,2.2H133.58a24.32,24.32,0,0,1,24.24,24.25v93a24.32,24.32,0,0,1-24.24,24.25H26.66A24.32,24.32,0,0,1,2.42,119.45v-93A24.32,24.32,0,0,1,26.66,2.2Z"/><path class="cls-3" d="M61.74,28.19,47,88.58H64.15l5.92-21.15c1.57-.56,5.6-1.88,11.81,0a16.55,16.55,0,0,1,4,2.67,6.8,6.8,0,0,1,1.57,6.26l-1.33,9c.07,4.3,1.1,5.45,4.25,6.54l1.32.27,6.8,7.81-8.94,18.64L109,108.07l13.55,11.3-1.44-19.53,14.14-10.32-17.17-1-2.84-18.59-9.62,18.19-2-.07c-.76,0-1,.06-1.65-.4-1.71-1.31-1.85-3-1.41-5.64l2.23-17.64c-.87-2.4-3.11-4.07-6.16-5h3.75a7.21,7.21,0,0,0,4.07-1.79c8.84-9.73,8.85-19.47-2-27.85a12.62,12.62,0,0,0-6.22-1.53ZM74.47,40.56H88.29c8.32,2.64,6.58,13.24,0,14.55h-17l3.22-14.55Z"/><polygon class="cls-4" points="114.2 75.5 116.72 90.26 130.52 91.03 119.19 99.24 120.7 115.44 109.35 105.67 93.55 114.34 101.03 99.26 92.95 89.7 106.75 90.19 114.2 75.5 114.2 75.5 114.2 75.5"/></g></g></svg>