<svg xmlns="http://www.w3.org/2000/svg" viewBox="0 0 300 300"><defs><style>.cls-1{fill:#ccc;}</style></defs><g id="Layer_2" data-name="Layer 2"><g id="katman_1" data-name="katman 1"><path class="cls-1" d="M150,0A150,150,0,1,0,300,150,150,150,0,0,0,150,0Zm70,137c-4.25,28.5-9.25,56.88-14.12,85.25-1.63,9.5-13.5,14.38-21.13,8.25-18.25-12.25-36.5-24.5-54.5-37-5.87-6-.37-14.62,4.88-18.87,15-14.75,30.87-27.38,45.12-42.88,3.88-9.25-7.5-1.5-11.25.87-20.5,14.13-40.5,29.13-62.25,41.63-11,6.12-24,.87-35-2.5-9.87-4-24.37-8.12-15.87-14.37,17.5-9.63,37.12-17.75,55.37-25.88,31.5-13.25,63-26.37,95-38.5,6.25-2.12,17.38-4.12,18.5,5.13C224.13,111.13,221.75,124.13,220,137Z"/></g></g></svg>