<svg xmlns="http://www.w3.org/2000/svg" viewBox="0 0 1437.68 1496.94"><defs><style>.cls-1{fill:#ccc;}</style></defs><g id="Layer_2" data-name="Layer 2"><g id="Laag_1" data-name="Laag 1"><path class="cls-1" d="M1426,653c-46.46-387.59-345.77-552.73-482.73-608.46A527.08,527.08,0,0,0,831,12.12C294.52-76.89,45.55,351.5,13.94,410.65a7.83,7.83,0,0,0,3,10.48l53.88,32a7.89,7.89,0,0,1,3.15,10c-206.5,452.77,73.53,765.44,184.89,866.14a482.08,482.08,0,0,0,73.81,54.8c478.55,287.72,857.7-65.47,857.7-65.47C1517,1025.33,1426,653,1426,653ZM224.88,730.55c-59,116.47-45.52,222.36-50.16,249.71-4.36,25.69-20.59,3.16-22.53.28a2.46,2.46,0,0,0-.37-.56c-33.48-57.11-26-188.78-25.41-197.5,0-.28.09-.56.09-.93,12.15-68.24,50.17-172.28,83-205.2C242.87,543,265.68,493.27,391,432.44c125.74-60.36,252.49-51.55,372.2,0S973.36,615.3,982.72,670.1c8.35,48.59-22.44,15-28.93,7.42a6.44,6.44,0,0,1-1.39-2.41c-1.48-4.27-13.07-23.93-101-92.82-103-80.3-240.43-103-346.23-75.67C398.46,533.79,283.86,614.09,224.88,730.55Zm630.81,280.5c-133.06,143.16-262.6,38.57-267.7,34.4a1.18,1.18,0,0,0-.37-.28c-130.55-94.67-60.08-240.62-54.43-251.66a5.4,5.4,0,0,1,.75-1.2c87.62-114.52,177.84-100.61,224.67-81.6,19.47,7.88,36.62,20.4,51.09,35.7C895.56,840.62,835.38,937,816.93,962a7.86,7.86,0,0,0,1.67,11l36,26.24A7.91,7.91,0,0,1,855.69,1011.05ZM1285.47,965s-145.3,444.62-617.27,396.4c0,0-311.18-45.43-362.92-374.7,0-.18-.1-.46-.1-.65-1.94-7.79-40.61-172.56,152.54-320.18.18-.18.46-.28.64-.46,2-1.21,11.13-5.94,7.05,11.4-4.63,19.48-61.29,36.17-84,203.26s117.86,266.4,154.11,291.43S800.06,1287,971.32,1120.37c167.18-162.64,143.26-372.2,142-382.12,0-.28-.09-.46-.09-.74-.28-9.37-8.07-199.92-199.54-356.06C720.68,224,482.75,270.73,474.87,272.31c-.09,0-.28.09-.37.09-4.92.74-102.09,16-250,112.76a15.89,15.89,0,0,0-4.17,3.7c-2.78,4.18-11.59,13.45-27.35,7s-12.52-9.27,7.88-30.14c18.82-19.28,29.76-31.43,31.34-33.19.09-.19.28-.28.37-.47,7.51-9.73,270.76-345.67,736.42-133a227.19,227.19,0,0,1,32.92,18.08c87.16,54.43,429.22,302.28,283.55,747.82Z"/></g></g></svg>