<svg xmlns="http://www.w3.org/2000/svg" xmlns:xlink="http://www.w3.org/1999/xlink" viewBox="0 0 951.08 955.35"><defs><style>.cls-1{fill:#ccc;}.cls-2{fill:#e0e0e0;}.cls-3{fill:url(#linear-gradient);}</style><linearGradient id="linear-gradient" x1="475.45" y1="-1268.59" x2="475.45" y2="-346.31" gradientTransform="matrix(1, 0, 0, -1, 0, -329.77)" gradientUnits="userSpaceOnUse"><stop offset="0" stop-color="#20b038"/><stop offset="1" stop-color="#60d66a"/></linearGradient></defs><g id="Layer_2" data-name="Layer 2"><g id="WhatsApp_logo" data-name="WhatsApp logo"><path class="cls-1" d="M264.73,142.61C156.07,212.72,84,334.8,83.93,473.4A392.44,392.44,0,0,0,144.1,682.8l9.37,14.88L113.7,842.88l149-39.06,14.38,8.52A393.07,393.07,0,0,0,477.38,867.2h.15c216.94,0,393.5-176.52,393.59-393.48,0-105.14-40.86-204-115.17-278.37a396.29,396.29,0,0,0-491.22-52.74Zm283.76,443.7c6.9-7.89,29.56-34.53,37.45-46.37s15.78-9.87,26.63-5.93,69,32.58,80.85,38.49,19.72,8.88,22.68,13.81,3,28.63-6.9,56.25S651,696.84,629.33,698.81s-42,9.81-142-29.6c-120.26-47.43-196.2-170.71-202.12-178.6S236.9,426.46,236.9,368.24s30.58-86.84,41.42-98.68,23.66-14.81,31.55-14.81,15.78,0,22.68.28c8.43.35,17.76.74,26.62,20.45,10.53,23.39,33.52,81.91,36.48,87.82s4.93,12.83,1,20.73-5.92,12.82-11.83,19.73-12.43,15.42-17.75,20.72c-5.93,5.9-12.09,12.31-5.19,24.14s30.65,50.58,65.82,81.94c45.21,40.31,83.32,52.79,95.16,58.73S541.58,594.22,548.49,586.31Z"/><path class="cls-2" d="M477.7,80.8a395.57,395.57,0,0,1,208.46,58.85,393.58,393.58,0,0,0-421.43,3A396.11,396.11,0,0,1,477.7,80.8Z"/><path class="cls-3" d="M477.7,80.8a395.57,395.57,0,0,1,208.46,58.85,393.58,393.58,0,0,0-421.43,3A396.11,396.11,0,0,1,477.7,80.8Z"/><path class="cls-2" d="M812.51,138.83C723.1,49.36,604.2.06,477.53,0,216.5,0,4.08,212.36,4,473.37A472.37,472.37,0,0,0,67.18,710L0,955.35l251-65.83a473.2,473.2,0,0,0,226.29,57.63h.2c261,0,473.44-212.39,473.55-473.4C951.13,347.25,901.91,228.31,812.51,138.83Zm-126.35.82A397.14,397.14,0,0,1,756,195.35c74.31,74.37,115.2,173.23,115.17,278.37C871,690.68,694.47,867.2,477.53,867.2h-.15a393.07,393.07,0,0,1-200.33-54.86l-14.38-8.52-149,39.06,39.77-145.2L144.1,682.8A392.44,392.44,0,0,1,83.93,473.4c0-138.6,72.14-260.68,180.8-330.79a393.58,393.58,0,0,1,421.43-3Z"/></g></g></svg>