<svg xmlns="http://www.w3.org/2000/svg" viewBox="0 0 331.6 442.02"><defs><style>.cls-1{fill:#ccc;}</style></defs><g id="Layer_2" data-name="Layer 2"><g id="iconape"><path class="cls-1" d="M0,80v80.1H160.1V0H0Zm171.5,0v80.1H331.6V0H171.5ZM0,251.6v80H160.1V171.5H0Zm171.5,0v80H331.6V171.5H171.5Z"/><path class="cls-1" d="M59.62,392.54,46,440.46H24.32L0,355.08H21.63l14.6,58.58h.51l15.53-58.58H67l15.53,58.58H83L97.6,355.08h21.53L94.81,440.46H73.28Z"/><path class="cls-1" d="M181.74,361.6l-7.86,15.52s-8.49-5.9-17.29-5.9c-6.62,0-10.14,3-10.14,7.66s8.07,8.18,17.8,12.32c9.52,4,20,12.11,20,23.29C184.23,434.88,168.7,442,152,442c-20,0-32.09-11.29-32.09-11.29l9.73-16.35S141.07,424,150.59,424c4.24,0,12.31-.42,12.31-8.39,0-6.21-9.1-9-19.25-14.07s-16.25-13-16.25-21.94c0-15.94,14.08-26.09,27.85-26.09A48.51,48.51,0,0,1,181.74,361.6Z"/><path class="cls-1" d="M259,410.14c0,21.11-11.59,31.88-33.33,31.88s-33.32-10.77-33.32-31.88V355.08h19.45v49.37c0,14.28,4.35,18.42,13.87,18.42s13.87-4.14,13.87-18.42V355.08H259Z"/><path class="cls-1" d="M326.22,361.6l-7.87,15.52s-8.48-5.9-17.28-5.9c-6.62,0-10.14,3-10.14,7.66s8.07,8.18,17.8,12.32c9.52,4,20,12.11,20,23.29,0,20.39-15.53,27.53-32.19,27.53-20,0-32.09-11.29-32.09-11.29l9.73-16.35S285.55,424,295.07,424c4.24,0,12.31-.42,12.31-8.39,0-6.21-9.1-9-19.25-14.07s-16.25-13-16.25-21.94c0-15.94,14.08-26.09,27.85-26.09A48.51,48.51,0,0,1,326.22,361.6Z"/></g></g></svg>