<svg xmlns="http://www.w3.org/2000/svg" viewBox="0 0 525.58 367.91"><defs><style>.cls-1{fill:#ccc;}</style></defs><g id="Layer_2" data-name="Layer 2"><g id="Layer_1-2" data-name="Layer 1"><path class="cls-1" d="M514.6,57.45A65.86,65.86,0,0,0,468.13,11C427.14,0,262.79,0,262.79,0S98.44,0,57.45,11A65.86,65.86,0,0,0,11,57.45C0,98.44,0,184,0,184s0,85.52,11,126.51a65.83,65.83,0,0,0,46.47,46.46c41,11,205.34,11,205.34,11s164.35,0,205.34-11a65.83,65.83,0,0,0,46.47-46.46c11-41,11-126.51,11-126.51S525.58,98.44,514.6,57.45ZM210.23,262.79V105.12L346.78,184Z"/></g></g></svg>