<svg xmlns="http://www.w3.org/2000/svg" viewBox="0 0 1280.37 476.51"><defs><style>.cls-1{isolation:isolate;}.cls-2{fill:#d31818;}.cls-3{fill:#133a20;}.cls-4{fill:#9e1212;}.cls-5{fill:#6d0808;}</style></defs><g id="Layer_2" data-name="Layer 2"><g id="Layer_1-2" data-name="Layer 1"><g class="cls-1"><g class="cls-1"><path d="M316.17,222h43.16v13.16h.48c9.76-9.75,22.19-16.82,35.84-16.82,22.92,0,54.86,11.46,54.86,46.32V347H407.35v-70.7c0-12.44-8.53-24.38-22.42-24.38-12.93,0-25.6,11.94-25.6,24.38V347H316.17Z"/><path d="M513.16,290.47c0,19.26,16.09,25.84,27.06,25.84,13.9,0,20-2.68,30.47-13.9L601.9,318c-14.14,23.65-37.06,32.67-64.85,32.67-37.79,0-68.75-29.75-68.75-66.07,0-36.57,31-66.32,68.75-66.32,38,0,67.05,22.43,67.05,66.32a44,44,0,0,1-.25,5.85Zm48.76-23.89c-1.95-13.17-11-20.24-23.65-20.24-14.87,0-23.16,8.78-23.89,20.24Z"/></g><g class="cls-1"><path d="M665,281.45c0,24.62,6.58,34.13,24.62,34.13s24.63-9.51,24.63-34.13V222h43.15v70c0,41.93-21,58.76-67.78,58.76s-67.77-16.83-67.77-58.76V222H665Z"/></g><g class="cls-1"><path d="M790.35,175.39H833.5V222h26.33v32.91H833.5v39.74c0,11.7,2.92,17.31,9.75,17.31,5.61,0,10.73-3.9,10.73-3.9l10.73,34.86a71.38,71.38,0,0,1-31.7,7.81c-34.37,0-42.66-25.6-42.66-47.79v-48H772.3V222h18.05Z"/><path d="M915.17,290.47c0,19.26,16.09,25.84,27.06,25.84,13.9,0,20-2.68,30.47-13.9L1003.91,318c-14.14,23.65-37.06,32.67-64.85,32.67-37.79,0-68.75-29.75-68.75-66.07,0-36.57,31-66.32,68.75-66.32,38,0,67,22.43,67,66.32a45.86,45.86,0,0,1-.24,5.85Zm48.76-23.89c-1.95-13.17-11-20.24-23.65-20.24-14.87,0-23.16,8.78-23.89,20.24Z"/><path d="M1063.15,284.37c0,17.31,13.41,31,29.74,31,12.92,0,21-5.86,21-5.86l14.63,30s-14.14,11.22-41.94,11.22c-36.08,0-69.24-29.26-69.24-65.83,0-36.81,32.92-66.56,69.24-66.56,27.8,0,41.94,11.7,41.94,11.7l-14.63,29.5s-8-5.85-21-5.85C1076.56,253.65,1063.15,267.31,1063.15,284.37Z"/><path d="M1146,137.36h43.15v97.76h.49c9.75-9.75,22.18-16.82,35.83-16.82,22.92,0,54.86,11.46,54.86,46.32V347h-43.15v-70.7c0-12.44-8.54-24.38-22.43-24.38-12.92,0-25.6,11.94-25.6,24.38V347H1146Z"/></g></g><g class="cls-1"><path class="cls-2" d="M861.18,476.51H844.49V403.29h16.69Z"/></g><g class="cls-1"><path class="cls-2" d="M888.51,476.51H871.82V403.29h16.69l29.11,45.44h.17V403.29h16.69v73.22H917.79l-29.1-45.44h-.18Z"/></g><g class="cls-1"><path class="cls-2" d="M936.24,403.29h51.47v14.65H970.32v58.57H953.63V417.94H936.24Z"/><path class="cls-2" d="M1035.63,417.94h-25.2v14.55h24.14v14.64h-24.14v14.73h25.2v14.65H993.74V403.29h41.89Z"/><path class="cls-2" d="M1071.39,403.29c13.58,0,23.87,7.37,23.87,21.74,0,11-6,18.37-15,21.22l25.2,30.26h-21.21l-22.36-28.93v28.93h-16.69V403.29Zm-7.54,32.48c6.3,0,13.84-.44,13.84-9.58s-7.54-9.59-13.84-9.59h-1.95v19.17Z"/><path class="cls-2" d="M1125.43,476.51h-16.68V403.29h16.68l29.11,45.44h.18V403.29h16.68v73.22h-16.68l-29.11-45.44h-.18Z"/><path class="cls-2" d="M1223.93,417.94h-25.2v14.55h24.14v14.64h-24.14v14.73h25.2v14.65H1182V403.29h41.89Z"/><path class="cls-2" d="M1228.9,403.29h51.47v14.65H1263v58.57h-16.69V417.94H1228.9Z"/></g><polygon class="cls-3" points="0 220.53 0 367.32 127.12 440.71 254.24 367.32 127.12 293.92 0 220.53"/><polygon class="cls-4" points="254.24 220.53 254.24 73.75 127.12 147.14 0 220.53 127.12 293.92 254.24 220.53"/><polygon class="cls-5" points="254.24 73.75 190.37 36.87 126.51 0 126.51 73.75 126.51 147.49 190.37 110.62 254.24 73.75"/></g></g></svg>