<svg xmlns="http://www.w3.org/2000/svg" viewBox="0 0 1269.72 450.1"><defs><style>.cls-1{fill:#133a20;}.cls-2{fill:#9e1212;}.cls-3{fill:#6d0808;}.cls-4{isolation:isolate;}</style></defs><g id="Layer_2" data-name="Layer 2"><g id="Layer_1-2" data-name="Layer 1"><polygon class="cls-1" points="0 220.53 0 367.32 127.12 440.71 254.24 367.32 127.12 293.92 0 220.53"/><polygon class="cls-2" points="254.24 220.53 254.24 73.75 127.12 147.14 0 220.53 127.12 293.92 254.24 220.53"/><polygon class="cls-3" points="254.24 73.75 190.37 36.87 126.51 0 126.51 73.75 126.51 147.49 190.37 110.62 254.24 73.75"/><g class="cls-4"><g class="cls-4"><path d="M305.52,231.38h43.15v13.17h.49c9.75-9.76,22.18-16.83,35.84-16.83,22.91,0,54.85,11.46,54.85,46.33v82.4H396.7v-70.7c0-12.44-8.53-24.38-22.43-24.38-12.92,0-25.6,11.94-25.6,24.38v70.7H305.52Z"/><path d="M502.5,299.89c0,19.26,16.09,25.84,27.06,25.84,13.9,0,20-2.68,30.48-13.9l31.21,15.61c-14.15,23.65-37.06,32.67-64.86,32.67-37.79,0-68.75-29.75-68.75-66.07,0-36.57,31-66.32,68.75-66.32,38,0,67.05,22.43,67.05,66.32a44,44,0,0,1-.25,5.85ZM551.26,276c-2-13.17-11-20.24-23.65-20.24-14.87,0-23.16,8.78-23.89,20.24Z"/></g><g class="cls-4"><path d="M654.37,290.87C654.37,315.49,661,325,679,325s24.62-9.51,24.62-34.13V231.38h43.15v70c0,41.93-21,58.76-67.77,58.76s-67.78-16.83-67.78-58.76v-70h43.15Z"/></g><g class="cls-4"><path d="M779.69,184.81h43.15v46.57h26.33v32.91H822.84V304c0,11.71,2.93,17.31,9.76,17.31,5.6,0,10.72-3.9,10.72-3.9l10.73,34.87a71.43,71.43,0,0,1-31.69,7.8c-34.38,0-42.67-25.6-42.67-47.79v-48h-18V231.38h18Z"/><path d="M904.51,299.89c0,19.26,16.09,25.84,27.06,25.84,13.9,0,20-2.68,30.48-13.9l31.2,15.61c-14.14,23.65-37,32.67-64.85,32.67-37.79,0-68.75-29.75-68.75-66.07,0-36.57,31-66.32,68.75-66.32,38,0,67.05,22.43,67.05,66.32a44,44,0,0,1-.25,5.85ZM953.27,276c-1.95-13.17-11-20.24-23.65-20.24-14.87,0-23.16,8.78-23.89,20.24Z"/><path d="M1052.49,293.79c0,17.31,13.41,31,29.75,31,12.92,0,21-5.85,21-5.85l14.63,30s-14.14,11.22-41.93,11.22c-36.08,0-69.24-29.26-69.24-65.83,0-36.81,32.91-66.56,69.24-66.56,27.79,0,41.93,11.71,41.93,11.71l-14.63,29.5s-8-5.86-21-5.86C1065.9,263.07,1052.49,276.73,1052.49,293.79Z"/><path d="M1135.38,146.78h43.15v97.77h.49c9.75-9.76,22.19-16.83,35.84-16.83,22.92,0,54.86,11.46,54.86,46.33v82.4h-43.16v-70.7c0-12.44-8.53-24.38-22.43-24.38-12.92,0-25.6,11.94-25.6,24.38v70.7h-43.15Z"/></g></g><path class="cls-2" d="M307.93,405h13V449.3h-13Z"/><path class="cls-2" d="M353.94,449.3,340.54,419V449.3h-13V405h17.57L358.6,435V405h13V449.3Z"/><path class="cls-2" d="M378.65,405H406v11.29H391.68v5.2h13.16v11.25H391.68V449.3h-13Z"/><path class="cls-2" d="M410.72,427.1a22.52,22.52,0,0,1,14.08-21.19,25.38,25.38,0,0,1,18.47,0,22.59,22.59,0,0,1,7.39,4.87,22.19,22.19,0,0,1,4.87,7.31,23.36,23.36,0,0,1,1.73,9,24,24,0,0,1-1.68,9,21.84,21.84,0,0,1-12.16,12.21A24.74,24.74,0,0,1,434,450.1a23.92,23.92,0,0,1-12.29-3.05,21.38,21.38,0,0,1-8.11-8.26A23.74,23.74,0,0,1,410.72,427.1Zm13.56,0a12.32,12.32,0,0,0,1.21,5.46,10,10,0,0,0,3.39,3.93,9.73,9.73,0,0,0,10.25,0,10,10,0,0,0,3.39-3.93,12.88,12.88,0,0,0,0-10.9,10.12,10.12,0,0,0-3.39-3.93,9.67,9.67,0,0,0-10.25,0,10.12,10.12,0,0,0-3.39,3.93A12.24,12.24,0,0,0,424.28,427.1Z"/><path class="cls-2" d="M462,405H481.9a14.56,14.56,0,0,1,7.12,1.7,12.12,12.12,0,0,1,4.84,4.84,15.09,15.09,0,0,1,1.74,7.43,14.71,14.71,0,0,1-1.39,6.9,10.52,10.52,0,0,1-3.34,4,11.09,11.09,0,0,1-3.59,1.68l10.61,17.83H483.31l-8.26-15.21V449.3H462Zm13,18.71h2.15a7.35,7.35,0,0,0,3.41-.84c1.09-.56,1.63-1.71,1.63-3.46s-.53-2.9-1.58-3.46a7,7,0,0,0-3.36-.84h-2.25Z"/><path class="cls-2" d="M555.91,405V449.3h-13v-22l.53-9.13-2.05,10.64L536.2,445H523.47l-5.17-16.22-2-10.64.54,9.13v22h-13V405h18.6l6.71,26,.74,4.4.74-4.4,6.72-26Z"/><path class="cls-2" d="M577.94,405h12.72l18.27,44.33H595.06l-2.82-7.69H576.43l-2.86,7.69h-13.9Zm2.85,25.36h7.09l-3.5-9.78h-.1Z"/><path class="cls-2" d="M614.94,416.26h-9.57V405h32.14v11.29h-9.57v33h-13Z"/><path class="cls-2" d="M642.58,405h13V449.3h-13Z"/><path class="cls-2" d="M661.31,427.1a23,23,0,0,1,1.76-9,22.64,22.64,0,0,1,4.92-7.31,22.89,22.89,0,0,1,7.41-4.87,24,24,0,0,1,9.18-1.74,24.31,24.31,0,0,1,9.29,1.74,22.55,22.55,0,0,1,7.38,4.87,22,22,0,0,1,4.87,7.31,23.36,23.36,0,0,1,1.73,9,24,24,0,0,1-1.68,9A21.78,21.78,0,0,1,694,448.36a24.79,24.79,0,0,1-9.44,1.74,23.92,23.92,0,0,1-12.29-3.05,21.45,21.45,0,0,1-8.11-8.26A23.85,23.85,0,0,1,661.31,427.1Zm13.57,0a12.19,12.19,0,0,0,1.21,5.46,9.82,9.82,0,0,0,3.39,3.93,9,9,0,0,0,5.1,1.46,9.07,9.07,0,0,0,5.14-1.46,10,10,0,0,0,3.39-3.93,12.88,12.88,0,0,0,0-10.9,10.12,10.12,0,0,0-3.39-3.93,9,9,0,0,0-5.14-1.47,8.89,8.89,0,0,0-5.1,1.47,10,10,0,0,0-3.39,3.93A12.1,12.1,0,0,0,674.88,427.1Z"/><path class="cls-2" d="M739.35,449.3,726,419V449.3H713V405h17.56L744,435V405h13V449.3Z"/><path class="cls-2" d="M789.75,416.26h-9.57V405h32.13v11.29h-9.57v33h-13Z"/><path class="cls-2" d="M817.12,405h29.75v11.29H830.11v5.37h16.76v10.91H830.11V438h16.76V449.3H817.12Z"/><path class="cls-2" d="M878.26,437.21a14.27,14.27,0,0,0,4.55-.74,16.74,16.74,0,0,0,3.41-1.48l5.54,11a19.13,19.13,0,0,1-5.47,2.72,27.36,27.36,0,0,1-9.1,1.37,25.38,25.38,0,0,1-9.27-1.69,24.48,24.48,0,0,1-7.74-4.79,22.43,22.43,0,0,1-5.29-7.27A21.61,21.61,0,0,1,853,427.2a21.88,21.88,0,0,1,1.91-9.18,22.61,22.61,0,0,1,5.27-7.32,24.34,24.34,0,0,1,7.74-4.82,25.33,25.33,0,0,1,9.29-1.71,27.09,27.09,0,0,1,9.1,1.38,18.9,18.9,0,0,1,5.47,2.71l-5.54,11a17.32,17.32,0,0,0-3.41-1.48,14.27,14.27,0,0,0-4.55-.74,12.34,12.34,0,0,0-6.68,1.56,8.88,8.88,0,0,0-3.48,3.88,11.37,11.37,0,0,0-1,4.6,11.49,11.49,0,0,0,1,4.65,8.82,8.82,0,0,0,3.48,3.9A12.34,12.34,0,0,0,878.26,437.21Z"/><path class="cls-2" d="M921.48,432.71H910.29V449.3h-13V405h13v16.49h11.19V405h13V449.3h-13Z"/><path class="cls-2" d="M967.41,449.3,954,419V449.3H941V405h17.56L972.08,435V405h13V449.3Z"/><path class="cls-2" d="M990.78,427.1a23,23,0,0,1,1.76-9,22.64,22.64,0,0,1,4.92-7.31,22.89,22.89,0,0,1,7.41-4.87,24,24,0,0,1,9.18-1.74,24.31,24.31,0,0,1,9.29,1.74,22.55,22.55,0,0,1,7.38,4.87,22,22,0,0,1,4.87,7.31,23.36,23.36,0,0,1,1.73,9,24,24,0,0,1-1.68,9,21.78,21.78,0,0,1-12.15,12.21,24.79,24.79,0,0,1-9.44,1.74,23.92,23.92,0,0,1-12.29-3.05,21.45,21.45,0,0,1-8.11-8.26A23.85,23.85,0,0,1,990.78,427.1Zm13.57,0a12.19,12.19,0,0,0,1.21,5.46,9.82,9.82,0,0,0,3.39,3.93,9,9,0,0,0,5.1,1.46,9.07,9.07,0,0,0,5.14-1.46,10,10,0,0,0,3.39-3.93,12.88,12.88,0,0,0,0-10.9,10.12,10.12,0,0,0-3.39-3.93,9,9,0,0,0-5.14-1.47,8.89,8.89,0,0,0-5.1,1.47,10,10,0,0,0-3.39,3.93A12.1,12.1,0,0,0,1004.35,427.1Z"/><path class="cls-2" d="M1042.89,405h13v33h15.15V449.3h-28.18Z"/><path class="cls-2" d="M1074.86,427.1a22.84,22.84,0,0,1,1.77-9,22.46,22.46,0,0,1,4.91-7.31,22.89,22.89,0,0,1,7.41-4.87,24,24,0,0,1,9.18-1.74,24.31,24.31,0,0,1,9.29,1.74,22.55,22.55,0,0,1,7.38,4.87,22,22,0,0,1,4.87,7.31,23.18,23.18,0,0,1,1.73,9,24,24,0,0,1-1.68,9,21.78,21.78,0,0,1-12.15,12.21,24.79,24.79,0,0,1-9.44,1.74,23.92,23.92,0,0,1-12.29-3.05,21.45,21.45,0,0,1-8.11-8.26A23.85,23.85,0,0,1,1074.86,427.1Zm13.57,0a12.19,12.19,0,0,0,1.21,5.46,9.82,9.82,0,0,0,3.39,3.93,9,9,0,0,0,5.1,1.46,9.07,9.07,0,0,0,5.14-1.46,10,10,0,0,0,3.39-3.93,12.88,12.88,0,0,0,0-10.9,10.12,10.12,0,0,0-3.39-3.93,9,9,0,0,0-5.14-1.47,8.89,8.89,0,0,0-5.1,1.47,10,10,0,0,0-3.39,3.93A12.1,12.1,0,0,0,1088.43,427.1Z"/><path class="cls-2" d="M1148.77,424.05h22.73v3.05a24.46,24.46,0,0,1-2.77,11.69,21,21,0,0,1-7.84,8.26,22.76,22.76,0,0,1-12,3.05,24,24,0,0,1-12.32-3.05,21.26,21.26,0,0,1-8.09-8.26,25.28,25.28,0,0,1,0-23.36,21.15,21.15,0,0,1,8.09-8.22,24.08,24.08,0,0,1,12.32-3,29.82,29.82,0,0,1,8.36,1,20.86,20.86,0,0,1,6,2.7,19,19,0,0,1,4,3.56,23.18,23.18,0,0,1,2.45,3.58l-12.49,5.64a10.64,10.64,0,0,0-2.77-3,10.39,10.39,0,0,0-10.56.06,10,10,0,0,0-3.39,3.93,12.88,12.88,0,0,0,0,10.9,9.82,9.82,0,0,0,3.39,3.93,9,9,0,0,0,5.1,1.46q7.21,0,7.86-4.17h-8Z"/><path class="cls-2" d="M1176.87,405h13V449.3h-13Z"/><path class="cls-2" d="M1196.48,405h29.75v11.29h-16.75v5.37h16.75v10.91h-16.75V438h16.75V449.3h-29.75Z"/><path class="cls-2" d="M1250.61,404.17a29,29,0,0,1,7.64.92,29.82,29.82,0,0,1,5.4,2,19.09,19.09,0,0,1,2.54,1.41L1260,418.88a15.9,15.9,0,0,0-1.86-1.13,19.49,19.49,0,0,0-3-1.29,9.65,9.65,0,0,0-3.16-.57,7.85,7.85,0,0,0-3,.48,1.7,1.7,0,0,0-1.18,1.67,2.66,2.66,0,0,0,1.5,2.16,27.09,27.09,0,0,0,5.49,2.3,20.57,20.57,0,0,1,8.44,5,12.64,12.64,0,0,1-2.3,19.44,18.85,18.85,0,0,1-5.69,2.37,27.24,27.24,0,0,1-6.36.75,32.53,32.53,0,0,1-8.78-1.07,31.76,31.76,0,0,1-6.22-2.33,15.58,15.58,0,0,1-2.9-1.8l6.35-10.85a10.93,10.93,0,0,0,1.59,1,32.39,32.39,0,0,0,3,1.41,30.14,30.14,0,0,0,3.57,1.26,12.94,12.94,0,0,0,3.43.52c2.75,0,4.13-.79,4.13-2.35a2.86,2.86,0,0,0-1.48-2.25,27.1,27.1,0,0,0-5.88-2.59,26.07,26.07,0,0,1-5.37-2.72,13.35,13.35,0,0,1-4.16-4.36,12.81,12.81,0,0,1-1.61-6.72,11.08,11.08,0,0,1,2.28-7,14.64,14.64,0,0,1,5.94-4.48A19.6,19.6,0,0,1,1250.61,404.17Z"/></g></g></svg>