<?xml version="1.0" encoding="UTF-8" standalone="no"?>
<!-- Created with Inkscape (http://www.inkscape.org/) -->

<svg
   width="451.68652mm"
   height="168.26198mm"
   viewBox="0 0 451.68652 168.26198"
   version="1.1"
   id="svg5"
   xmlns="http://www.w3.org/2000/svg"
   xmlns:svg="http://www.w3.org/2000/svg">
  <defs
     id="defs2">
    <clipPath
       clipPathUnits="userSpaceOnUse"
       id="clipPath23">
      <path
         d="M 0,2000 H 2000 V 0 H 0 Z"
         id="path21" />
    </clipPath>
    <clipPath
       clipPathUnits="userSpaceOnUse"
       id="clipPath73">
      <path
         d="M 0,2000 H 2000 V 0 H 0 Z"
         id="path71" />
    </clipPath>
  </defs>
  <g
     id="layer1"
     transform="translate(117.35383,-66.836259)">
    <g
       id="g15"
       transform="matrix(0.35277777,0,0,-0.35277777,-244.28846,503.57161)">
      <g
         id="g226"
         transform="matrix(0.99555244,0,0,0.99555244,4.4475566,4.4453733)">
        <g
           id="g17">
          <g
             id="g19"
             clip-path="url(#clipPath23)">
            <g
               id="g25"
               transform="translate(675.9874,1015.5752)">
              <path
                 d="m 0,0 h 43.153 v -13.166 h 0.488 c 9.752,9.752 22.185,16.823 35.838,16.823 22.917,0 54.855,-11.459 54.855,-46.323 V -125.07 H 91.182 v 70.702 c 0,12.435 -8.534,24.381 -22.43,24.381 -12.922,0 -25.599,-11.946 -25.599,-24.381 V -125.07 H 0 Z"
                 style="fill:#000000;fill-opacity:1;fill-rule:nonzero;stroke:none"
                 id="path27" />
            </g>
            <g
               id="g29"
               transform="translate(921.7316,970.959)">
              <path
                 d="M 0,0 C -1.95,13.166 -10.972,20.237 -23.648,20.237 -38.521,20.237 -46.81,11.459 -47.541,0 Z m -48.76,-23.892 c 0,-19.26 16.09,-25.843 27.062,-25.843 13.896,0 19.992,2.682 30.476,13.897 l 31.206,-15.603 c -14.141,-23.649 -37.059,-32.67 -64.852,-32.67 -37.788,0 -68.751,29.743 -68.751,66.07 0,36.571 30.963,66.314 68.751,66.314 38.034,0 67.047,-22.43 67.047,-66.314 0,-1.707 0,-4.388 -0.245,-5.851 z"
                 style="fill:#000000;fill-opacity:1;fill-rule:nonzero;stroke:none"
                 id="path31" />
            </g>
            <g
               id="g33"
               transform="translate(1024.8439,956.0884)">
              <path
                 d="m 0,0 c 0,-24.625 6.582,-34.133 24.623,-34.133 18.041,0 24.625,9.508 24.625,34.133 V 59.487 H 92.4 v -69.971 c 0,-41.934 -20.966,-58.757 -67.777,-58.757 -46.81,0 -67.777,16.823 -67.777,58.757 V 59.487 H 0 Z"
                 style="fill:#000000;fill-opacity:1;fill-rule:nonzero;stroke:none"
                 id="path35" />
            </g>
            <g
               id="g37"
               transform="translate(1150.1603,1062.1414)">
              <path
                 d="m 0,0 h 43.154 v -46.566 h 26.33 V -79.48 h -26.33 v -39.739 c 0,-11.702 2.925,-17.31 9.752,-17.31 5.607,0 10.727,3.901 10.727,3.901 l 10.728,-34.864 c 0,0 -13.898,-7.802 -31.695,-7.802 C 8.29,-175.294 0,-149.695 0,-127.508 v 48.028 h -18.041 v 32.914 H 0 Z"
                 style="fill:#000000;fill-opacity:1;fill-rule:nonzero;stroke:none"
                 id="path39" />
            </g>
            <g
               id="g41"
               transform="translate(1323.7423,970.959)">
              <path
                 d="M 0,0 C -1.951,13.166 -10.972,20.237 -23.65,20.237 -38.521,20.237 -46.811,11.459 -47.543,0 Z m -48.761,-23.892 c 0,-19.26 16.091,-25.843 27.061,-25.843 13.898,0 19.993,2.682 30.475,13.897 l 31.207,-15.603 c -14.14,-23.649 -37.057,-32.67 -64.85,-32.67 -37.79,0 -68.752,29.743 -68.752,66.07 0,36.571 30.962,66.314 68.752,66.314 38.032,0 67.045,-22.43 67.045,-66.314 0,-1.707 0,-4.388 -0.244,-5.851 z"
                 style="fill:#000000;fill-opacity:1;fill-rule:nonzero;stroke:none"
                 id="path43" />
            </g>
            <g
               id="g45"
               transform="translate(1422.963,953.1616)">
              <path
                 d="m 0,0 c 0,-17.31 13.409,-30.963 29.743,-30.963 12.922,0 20.967,5.852 20.967,5.852 l 14.629,-29.988 c 0,0 -14.142,-11.215 -41.935,-11.215 -36.082,0 -69.238,29.256 -69.238,65.827 0,36.814 32.911,66.558 69.238,66.558 27.793,0 41.935,-11.703 41.935,-11.703 L 50.71,24.868 c 0,0 -8.045,5.852 -20.967,5.852 C 13.409,30.72 0,17.067 0,0"
                 style="fill:#000000;fill-opacity:1;fill-rule:nonzero;stroke:none"
                 id="path47" />
            </g>
            <g
               id="g49"
               transform="translate(1505.8507,1100.1753)">
              <path
                 d="m 0,0 h 43.152 v -97.766 h 0.488 c 9.752,9.752 22.185,16.823 35.839,16.823 22.917,0 54.856,-11.459 54.856,-46.323 V -209.67 H 91.181 v 70.702 c 0,12.435 -8.533,24.381 -22.429,24.381 -12.923,0 -25.6,-11.946 -25.6,-24.381 V -209.67 H 0 Z"
                 style="fill:#000000;fill-opacity:1;fill-rule:nonzero;stroke:none"
                 id="path51" />
            </g>
          </g>
        </g>
        <path
           d="m 1220.992,761.027 h -16.686 v 73.216 h 16.686 z"
           style="fill:#d31818;fill-opacity:1;fill-rule:nonzero;stroke:none"
           id="path53" />
        <g
           id="g55"
           transform="translate(1248.3224,761.0269)">
          <path
             d="M 0,0 H -16.685 V 73.216 H 0 L 29.109,27.778 h 0.177 V 73.216 H 45.97 V 0 H 29.286 L 0.178,45.438 H 0 Z"
             style="fill:#d31818;fill-opacity:1;fill-rule:nonzero;stroke:none"
             id="path57" />
        </g>
        <g
           id="g59"
           transform="translate(1296.0548,834.2432)">
          <path
             d="M 0,0 H 51.474 V -14.644 H 34.079 V -73.216 H 17.395 v 58.572 H 0 Z"
             style="fill:#d31818;fill-opacity:1;fill-rule:nonzero;stroke:none"
             id="path61" />
        </g>
        <g
           id="g63"
           transform="translate(1395.4454,819.5991)">
          <path
             d="m 0,0 h -25.202 v -14.554 h 24.139 v -14.644 h -24.139 v -14.73 H 0 V -58.572 H -41.888 V 14.644 H 0 Z"
             style="fill:#d31818;fill-opacity:1;fill-rule:nonzero;stroke:none"
             id="path65" />
        </g>
        <g
           id="g67">
          <g
             id="g69"
             clip-path="url(#clipPath73)">
            <g
               id="g75"
               transform="translate(1423.6622,801.7612)">
              <path
                 d="m 0,0 c 6.302,0 13.845,0.443 13.845,9.584 0,9.142 -7.543,9.585 -13.845,9.585 H -1.952 V 0 Z m 7.543,32.482 c 13.578,0 23.873,-7.366 23.873,-21.743 0,-11.005 -6.035,-18.371 -14.997,-21.211 L 41.621,-40.734 H 20.412 l -22.364,28.931 v -28.931 h -16.685 v 73.216 z"
                 style="fill:#d31818;fill-opacity:1;fill-rule:nonzero;stroke:none"
                 id="path77" />
            </g>
            <g
               id="g79"
               transform="translate(1485.2462,761.0269)">
              <path
                 d="M 0,0 H -16.685 V 73.216 H 0 L 29.108,27.778 h 0.178 V 73.216 H 45.971 V 0 H 29.286 L 0.178,45.438 H 0 Z"
                 style="fill:#d31818;fill-opacity:1;fill-rule:nonzero;stroke:none"
                 id="path81" />
            </g>
            <g
               id="g83"
               transform="translate(1583.7472,819.5991)">
              <path
                 d="m 0,0 h -25.203 v -14.554 h 24.139 v -14.644 h -24.139 v -14.73 H 0 V -58.572 H -41.889 V 14.644 H 0 Z"
                 style="fill:#d31818;fill-opacity:1;fill-rule:nonzero;stroke:none"
                 id="path85" />
            </g>
            <g
               id="g87"
               transform="translate(1588.712,834.2432)">
              <path
                 d="M 0,0 H 51.474 V -14.644 H 34.079 V -73.216 H 17.395 v 58.572 H 0 Z"
                 style="fill:#d31818;fill-opacity:1;fill-rule:nonzero;stroke:none"
                 id="path89" />
            </g>
          </g>
        </g>
        <g
           id="g91"
           transform="translate(486.4308,1090.009)">
          <path
             d="m 0,0 0.244,147.981 127.379,-74.2 z"
             style="fill:#6d0808;fill-opacity:1;fill-rule:nonzero;stroke:none"
             id="path93" />
        </g>
        <g
           id="g95"
           transform="translate(486.9337,943.6113)">
          <path
             d="M 0,0 -127.119,73.392 V -73.393 L 0,-146.785 127.119,-73.393 Z"
             style="fill:#133a20;fill-opacity:1;fill-rule:nonzero;stroke:none"
             id="path97" />
        </g>
        <g
           id="g99"
           transform="translate(486.9347,1090.3972)">
          <path
             d="M 0,0 -127.119,-73.392 C -84.732782,-97.866908 -42.34796,-122.3407 0,-146.785 l 127.119,73.392 V 73.392 Z"
             style="fill:#9e1212;fill-opacity:1;fill-rule:nonzero;stroke:none"
             id="path101" />
        </g>
      </g>
    </g>
  </g>
</svg>
