<?xml version="1.0" standalone="no"?>
<!DOCTYPE svg PUBLIC "-//W3C//DTD SVG 20010904//EN"
 "http://www.w3.org/TR/2001/REC-SVG-20010904/DTD/svg10.dtd">
<svg version="1.0" xmlns="http://www.w3.org/2000/svg"
 width="180.000000pt" height="180.000000pt" viewBox="0 0 180.000000 180.000000"
 preserveAspectRatio="xMidYMid meet">
<metadata>
Created by potrace 1.14, written by Peter Selinger 2001-2017
</metadata>
<g transform="translate(0.000000,180.000000) scale(0.100000,-0.100000)"
fill="#000000" stroke="none">
<path d="M490 1503 l0 -128 94 -50 c52 -27 92 -54 89 -60 -4 -5 -3 -7 1 -3 8
6 78 -27 181 -86 64 -36 157 -87 200 -110 22 -12 42 -23 45 -26 3 -3 22 -13
43 -23 21 -9 35 -22 32 -27 -3 -5 0 -8 7 -5 15 5 127 -55 129 -70 2 -10 -10
-17 -127 -80 -38 -20 -73 -40 -77 -44 -4 -4 11 -16 33 -26 23 -10 46 -27 51
-37 6 -10 14 -16 19 -13 13 8 72 -24 65 -35 -4 -6 1 -7 11 -3 10 3 15 2 12 -3
-13 -21 55 -12 93 12 22 13 45 22 51 18 6 -4 8 -3 5 3 -8 12 47 35 59 25 4 -4
4 -2 1 4 -4 7 9 18 31 28 33 15 38 22 36 47 -1 16 2 32 7 35 6 4 6 10 1 17 -5
7 -9 49 -9 94 0 46 -1 84 -4 86 -2 2 -40 23 -84 47 -140 75 -210 114 -215 119
-3 3 -11 7 -18 9 -7 1 -31 13 -52 27 -22 14 -44 25 -50 25 -6 0 -8 6 -4 13 4
6 3 9 -1 5 -5 -5 -40 9 -79 31 -39 21 -98 53 -131 71 -33 18 -70 39 -82 46
-12 8 -42 25 -65 37 -24 13 -98 54 -164 90 -67 37 -124 67 -128 67 -3 0 -6
-57 -6 -127z"/>
<path d="M490 620 c0 -247 3 -450 8 -450 4 0 16 6 27 14 11 7 47 28 80 45 33
18 67 36 75 41 77 48 142 80 152 74 7 -4 8 -3 4 4 -4 7 4 17 21 24 15 7 30 15
33 18 7 8 379 220 386 220 3 0 2 -5 -2 -12 -5 -7 -3 -8 6 -3 10 6 7 14 -13 31
-14 12 -23 25 -19 30 4 4 1 4 -6 0 -7 -4 -25 2 -41 13 -16 12 -31 21 -34 21
-3 0 -35 17 -71 38 -55 32 -64 41 -53 52 10 12 9 12 -5 1 -15 -11 -22 -10 -47
8 -16 12 -34 21 -40 21 -7 0 -14 6 -17 13 -3 8 -10 14 -17 14 -7 0 -78 39
-160 86 -81 48 -149 87 -152 87 -3 0 -27 14 -53 30 -27 17 -52 30 -56 30 -3 0
-6 -202 -6 -450z"/>
<path d="M926 402 c-3 -5 1 -9 9 -9 8 0 12 4 9 9 -3 4 -7 8 -9 8 -2 0 -6 -4
-9 -8z"/>
<path d="M676 233 c-6 -14 -5 -15 5 -6 7 7 10 15 7 18 -3 3 -9 -2 -12 -12z"/>
<path d="M640 200 c-9 -6 -10 -10 -3 -10 6 0 15 5 18 10 8 12 4 12 -15 0z"/>
</g>
</svg>
